<?xml version="1.0" encoding="UTF-8"?>
<svg id="Layer_1" data-name="Layer 1" xmlns="http://www.w3.org/2000/svg" viewBox="0 0 512.1 512">
  <defs>
    <style>
      .cls-1 {
        fill: #ede9ce;
      }

      .cls-2 {
        fill: #ede9e3;
      }
    </style>
  </defs>
  <path class="cls-2" d="M156.4,329.1C69.9,329.1,0,255.4,0,164.6S69.9,0,156.4,0h162.7c86.4,0,156.4,73.8,156.4,164.6s-69.9,164.6-156.4,164.6l-162.7-.1Z"/>
  <path class="cls-1" d="M261.8,395.6v100.4c0,8.7-7,16-15.5,16-4.1,0-8.1-1.7-10.9-4.7l-152.4-157.1c-29.9-30.5-46.4-72.3-46.4-115.6,0-89.1,69.9-161.4,156.4-161.4h162.7c86.4,0,156.4,72.4,156.4,161.4s-70,161.4-156.5,161.4h-93.8v-.4Z"/>
  <path class="cls-1" d="M155.6,329.1h163.1c86.6,0,156.7-75.5,156.7-168.4,0-11-1.1-21.6-2.8-32.2-28.5-34.1-70.1-55.4-116.2-55.4h-163.1c-86.6,0-156.7,75.5-156.7,168.4,0,11,1.1,21.6,2.8,31.9,28.5,34.1,70.1,55.7,116.2,55.7"/>
</svg>