<?xml version="1.0" encoding="UTF-8"?>
<svg id="Layer_1" data-name="Layer 1" xmlns="http://www.w3.org/2000/svg" viewBox="0 0 36.1 11.27">
  <path d="M15.22,5.25c1.8-.13,2.67,1.85,2.84,3.51.08.72.15,2.04-.62,2.37-.88.38-1.4-.81-1.86-1.37-.85-1.02-1.1.6-1.51,1.13-.35.44-.9.4-1.18-.09-.44-.77-.21-2.47.06-3.3.35-1.1,1.13-2.17,2.28-2.25h0Z"/>
  <path d="M33.22,5.25c1.78-.13,2.65,1.82,2.83,3.47.08.72.16,2.03-.58,2.39-.86.43-1.42-.75-1.87-1.32-1.01-1.29-1.11,1.12-1.91,1.36-.71.21-.99-.58-1.05-1.2-.16-1.79.62-4.58,2.57-4.72h0Z"/>
  <path d="M25.57,5.25c.52-.06.98.68,1.25,1.09.21.32.71,1.23,1.04,1.35.21.08.3-.06.36-.26.16-.55.03-1.72.45-2.08.28-.24.62-.05.8.23.44.7.44,2.39.41,3.23-.03.87-.11,2.53-1.26,2.39-.53-.06-1.08-1.04-1.45-1.43-.2-.21-.57-.49-.79-.16-.26.37-.12,1.49-.64,1.59-.77.14-.97-1.23-1.03-1.81-.07-.67-.07-1.45-.02-2.12.04-.6.18-1.93.88-2.01h0Z"/>
  <path d="M20.02,5.24c1.08-.11.9,1.94.92,2.67.01.48.03,1.54.67,1.49.56-.05.58-1.28.6-1.73.02-.56-.03-1.76.24-2.22.25-.43.73-.13.94.19.48.73.55,2.39.52,3.28-.02.62-.16,1.92-.71,2.27-.32.2-.5.04-.77-.12-.76-.43-1.27.18-2.04.13-1.64-.11-1.7-2.85-1.47-4.14.1-.59.45-1.75,1.1-1.82h0Z"/>
  <path d="M9.5,5.21c.65-.04,1.79.09,2.22.7.13.19.17.48-.02.64-.29.26-1.14-.07-1.54-.02-.19.02-.28.17-.21.37.09.26.65.55.87.71.72.49,1.3,1.03,1.15,2.06-.28,1.96-3.17,1.86-4.21.72-.22-.25-.58-.87-.21-1.14s1.3.13,1.78.03c.38-.07.45-.41.16-.69-.55-.53-1.6-.79-1.66-1.78-.07-1.14.77-1.55,1.67-1.6h0Z"/>
  <path d="M5.39,0c1.36-.11,2.05,1.36,2.21,2.62.07.58.16,1.8-.54,2-.65.18-1.01-.6-1.35-1.05-.84-1.09-.85,1-1.6,1.06-.91.07-.75-1.64-.65-2.24C3.65,1.33,4.28.1,5.39,0Z"/>
  <path d="M.8,0c.57-.1.71.72.79,1.18.06.37.11,1.28.28,1.56.26.44,1.03.12,1.09.75.06.65-.74,1.07-1.24,1.14C-.02,4.85-.11,2.93.06,1.55.11,1.11.31.09.8,0Z"/>
</svg>