<?xml version="1.0" encoding="UTF-8"?>
<svg id="Layer_1" data-name="Layer 1" xmlns="http://www.w3.org/2000/svg" viewBox="0 0 3011.96 860.1">
  <path d="M1269.62,400.72c150.15-9.99,222.53,140.94,237.15,267.98,6.36,55.26,12.31,155.9-51.73,181.19-73.47,29.02-116.62-61.6-155.44-104.58-70.68-78.25-91.38,45.83-126.23,85.9-28.9,33.23-75.26,30.6-98.79-6.81-36.92-58.72-17.16-188.51,5.18-251.77,29.61-83.83,94.51-165.56,189.86-171.91Z"/>
  <path d="M2771.68,400.72c148.47-9.62,221.12,139.26,236.19,265.1,6.58,54.99,13.14,154.64-48.19,182.81-72.03,33.08-118.9-56.98-156.15-100.39-84.49-98.45-92.3,85.49-159.09,103.8-58.96,16.16-83.01-44.48-87.54-91.35-13.2-136.37,52.07-349.41,214.79-359.96Z"/>
  <path d="M2133.43,400.72c43.45-4.68,82.17,51.79,104.64,82.88,17.91,24.79,59.55,94.17,86.58,103.42,17.33,5.93,25.3-4.84,29.99-19.88,12.99-41.69,2.28-131.39,37.68-159,23.16-18.07,52.11-3.79,66.9,17.51,37.02,53.3,36.57,182.79,34.29,246.74-2.36,66.3-9.05,193.34-104.96,182.7-44.15-4.9-90.05-79.59-121.01-109.29-16.65-15.97-47.18-37.21-66.17-12.36-21.58,28.23-10.13,113.88-53.3,121.33-64.07,11.06-81.27-93.75-86.32-138.32-5.76-50.9-5.97-110.96-2.02-162.01,3.53-45.76,14.73-147.36,73.7-153.71Z"/>
  <path d="M1670.81,399.76c90.51-8.5,75.24,148.27,76.94,203.62,1.12,36.44,2.47,117.85,56.17,113.63,46.87-3.68,48.8-97.52,50.44-131.86,2.06-43.04-2.16-134.46,20.32-169.64,20.96-32.81,60.99-9.96,78.32,14.36,39.9,56,45.69,182.62,43.41,250.26-1.61,47.69-13.12,146.75-59.26,172.94-26.65,15.13-41.83,2.9-64.57-8.94-63.05-32.83-106.15,14.11-170.42,10.13-136.92-8.48-141.52-217.41-122.99-315.85,8.44-44.83,37.29-133.54,91.64-138.65Z"/>
  <path d="M792.6,397.84c54.24-2.85,149.54,6.62,185.27,53.13,11.1,14.44,14.24,36.65-1.3,49.22-24.59,19.9-95.38-5.24-128.58-1.88-15.51,1.57-23.58,13.34-17.64,28.16,7.83,19.54,54.23,42.28,72.74,53.93,59.8,37.63,108.19,78.41,95.91,157.11-23.39,149.81-264.42,141.92-351.18,54.88-18.7-18.77-48.76-66.5-17.54-86.7s108.19,9.61,148.35,2.46c31.44-5.6,37.4-31.55,13.66-52.49-45.67-40.27-133.52-60.49-138.7-135.74-5.98-86.82,64.07-118.14,139.01-122.08Z"/>
  <path d="M449.96.66c113.23-8.27,171.22,103.52,184.34,199.88,6.06,44.51,12.97,137.79-44.77,152.6-54.18,13.89-84.03-46.11-112.52-79.8-70.49-83.38-71.07,76.51-133.83,81.08-75.9,5.52-62.53-125.21-53.96-170.98C304.61,101.25,357.04,7.45,449.96.66Z"/>
  <path d="M66.95.61c47.81-7.43,59.46,55.1,66.02,89.93,5.34,28.34,9.39,98.06,23.07,118.92,22.02,33.58,85.82,9.53,90.63,57.15,5.05,50-61.97,81.9-103.29,86.69C-1.77,370.14-9.12,223.79,4.95,118.04,9.42,84.44,25.78,7.01,66.95.61Z"/>
</svg>